<?xml version="1.0" encoding="UTF-8"?>
<svg width="42px" height="42px" viewBox="0 0 42 42" version="1.1" xmlns="http://www.w3.org/2000/svg" xmlns:xlink="http://www.w3.org/1999/xlink">
    <!-- Generator: Sketch 63.1 (92452) - https://sketch.com -->
    <title>robots</title>
    <desc>Created with Sketch.</desc>
    <g id="Page-1" stroke="none" stroke-width="1" fill="none" fill-rule="evenodd">
        <g id="Mekkanos-Laanding-page" transform="translate(-820.000000, -2349.000000)" fill-rule="nonzero">
            <g id="robots" transform="translate(820.000000, 2349.000000)">
                <circle id="Oval" fill="#745EAA" cx="21" cy="21" r="21"></circle>
                <path d="M25.5582973,42 C34.5727822,41.1221181 41.6578235,33.8865591 42,24.9748037 L31.1375045,14.4168026 L31.0430592,14.5424426 L29.3091552,12.8571429 L25.2726735,14.1573225 L16.2857143,18.3700854 L28.6863596,30.4231194 L16.9943757,32.2065407 L21.0560237,36.1544032 L19.9471316,36.5462639 L25.5582973,42 Z" id="Path" fill-opacity="0.137046547" fill="#FFFFFF"></path>
                <rect id="Rectangle" fill="#FD8469" x="12.8571429" y="8.57142857" width="1.71428571" height="5.14285714"></rect>
                <rect id="Rectangle" fill="#FC6F58" x="27.4285714" y="8.57142857" width="1.71428571" height="5.14285714"></rect>
                <rect id="Rectangle" fill="#31BAFD" x="17.1428571" y="14.5714286" width="9.42857143" height="5.14285714"></rect>
                <rect id="Rectangle" fill="#2B9ED8" x="20.5714286" y="14.5714286" width="5.14285714" height="5.14285714"></rect>
                <rect id="Rectangle" fill="#31BAFD" x="12.8571429" y="18.8571429" width="3.42857143" height="12"></rect>
                <rect id="Rectangle" fill="#2B9ED8" x="25.7142857" y="18.8571429" width="3.42857143" height="12"></rect>
                <path d="M26.5655926,16.2857143 L16.2913895,16.2857143 C15.3414896,16.2857143 14.5714286,15.4915889 14.5714286,14.5120046 L14.5714286,8.6310183 C14.5714286,7.651434 15.3414896,6.85714286 16.2913895,6.85714286 L26.5655926,6.85714286 C27.5154926,6.85714286 28.2857143,7.65126826 28.2857143,8.6310183 L28.2857143,14.5120046 C28.2857143,15.4915889 27.5155729,16.2857143 26.5655926,16.2857143 Z" id="Path" fill="#1B2A38"></path>
                <g id="Group" transform="translate(15.428571, 6.857143)">
                    <path d="M11.0610488,0.0617789757 L5.85895118,0.0617789757 L5.85895118,9.26215633 L11.0610488,9.26215633 C12.0229747,9.26215633 12.8029476,8.48725067 12.8029476,7.53121294 L12.8029476,1.79272237 C12.8028662,0.836684636 12.0230561,0.0617789757 11.0610488,0.0617789757 Z" id="Path" fill="#2B3B4E"></path>
                    <path d="M5.85895118,29.962965 L5.85895118,29.962965 C2.66305606,29.962965 0.0723417722,27.3885445 0.0723417722,24.2127493 L0.0723417722,11.5622911 L11.6455606,11.5622911 L11.6455606,24.2127493 C11.6455606,27.3885445 9.05484629,29.962965 5.85895118,29.962965 Z" id="Path" fill="#1B2A38"></path>
                </g>
                <path d="M21.4285714,18.8571429 L21.4285714,37.7142857 C24.7421516,37.7142857 27.4285714,35.0760127 27.4285714,31.8214493 L27.4285714,18.8571429 L21.4285714,18.8571429 Z" id="Path" fill="#1B2A38"></path>
                <circle id="Oval" fill="#31BAFD" cx="16.7142857" cy="12.4285714" r="2.14285714"></circle>
                <circle id="Oval" fill="#B5F1F4" cx="17.1428571" cy="12" r="1"></circle>
                <circle id="Oval" fill="#2B9ED8" cx="25.2857143" cy="12.4285714" r="2.14285714"></circle>
                <circle id="Oval" fill="#84DBFF" cx="24.8571429" cy="12" r="1"></circle>
            </g>
        </g>
    </g>
</svg>